<svg xmlns="http://www.w3.org/2000/svg" width="127" height="127" viewBox="0 0 127 127">
    <path fill="#3ab2e6" d="M63.5 0A63.5 63.5 0 1 0 127 63.5 63.507 63.507 0 0 0 63.5 0zm28.993 49.511q.042.937.042 1.884c0 19.259-14.66 41.468-41.469 41.469a41.256 41.256 0 0 1-22.341-6.547 29.641 29.641 0 0 0 3.477.2 29.245 29.245 0 0 0 18.1-6.239 14.591 14.591 0 0 1-13.614-10.122 14.527 14.527 0 0 0 6.583-.25 14.579 14.579 0 0 1-11.693-14.287v-.186a14.474 14.474 0 0 0 6.6 1.823 14.587 14.587 0 0 1-4.51-19.456 41.38 41.38 0 0 0 30.043 15.226 14.583 14.583 0 0 1 24.837-13.292A29.234 29.234 0 0 0 97.8 36.2a14.632 14.632 0 0 1-6.41 8.062 29.069 29.069 0 0 0 8.37-2.3 29.62 29.62 0 0 1-7.267 7.549zm0 0"/>
</svg>
