<svg xmlns="http://www.w3.org/2000/svg" width="127" height="127" viewBox="0 0 127 127">
    <g>
        <path fill="#3ab2e6" d="M63.5 127A63.5 63.5 0 1 0 0 63.5 63.489 63.489 0 0 0 63.5 127zM29.057 62.124l61.224-23.606c2.842-1.027 5.323.693 4.4 4.99l.005-.005-10.422 49.112c-.773 3.482-2.842 4.329-5.736 2.688L62.653 83.6 55 90.98a4 4 0 0 1-3.2 1.561l1.127-16.155 29.422-26.58c1.281-1.127-.286-1.762-1.974-.64L44.011 72.057l-15.674-4.89c-3.4-1.079-3.477-3.4.72-5.043z" transform="translate(-15 5) translate(15 -5)"/>
    </g>
</svg>
